<svg width="260" height="260" viewBox="0 0 260 260" fill="none" xmlns="http://www.w3.org/2000/svg">
<g clip-path="url(#clip0_38_71)">
<path d="M46.7828 252.594H50.7661L52.6617 237.581H46.7828V252.594Z" fill="#A0616A"/>
<path d="M45.4828 249.928L51.8466 249.557V252.221L57.8968 256.304C58.1956 256.505 58.4207 256.795 58.5391 257.13C58.6576 257.466 58.6631 257.829 58.5551 258.168C58.447 258.507 58.2309 258.803 57.9384 259.013C57.6459 259.224 57.2922 259.337 56.929 259.337H49.3527L48.0469 256.702L47.537 259.337H44.6804L45.4828 249.928Z" fill="#2F2E41"/>
<path d="M78.6409 252.594H82.6241L84.5201 237.581H78.6409V252.594Z" fill="#A0616A"/>
<path d="M77.3411 249.928L83.7049 249.557V252.221L89.755 256.304C90.0539 256.505 90.279 256.795 90.3974 257.13C90.5158 257.466 90.5214 257.829 90.4133 258.168C90.3053 258.507 90.0892 258.803 89.7967 259.013C89.5041 259.224 89.1505 259.337 88.7873 259.337H81.211L79.9051 256.702L79.3953 259.337H76.5387L77.3411 249.928Z" fill="#2F2E41"/>
<path d="M49.9362 160.901L71.1139 161.42V139.055L53.7181 139.139L49.9362 160.901Z" fill="#A0616A"/>
<path d="M71.2215 144.799L74.0524 154.015L79.9292 166.104L92.3434 235.931L90.4455 245.59L72.0419 244.834L63.8455 184.965L63.7137 193.23L63.6499 197.231C63.6499 197.231 66.6394 223.25 63.1546 228.3C59.6699 233.35 63.0836 232.756 63.0836 232.756L62.9175 243.172L41.1117 243.323L45.9224 213.334C45.9224 213.334 48.3651 211.449 47.0582 209.555C45.7512 207.661 48.3249 205.34 48.3249 205.34L47.1706 181.929C47.1706 181.929 48.4486 177.885 46.9453 177.359C45.4419 176.833 46.7479 173.356 46.7479 173.356L46.5245 168.824L51.4712 150.548L71.2215 144.799Z" fill="#2F2E41"/>
<path d="M50.7001 139.055L48.535 132.708L46.9885 130.593L46.3699 124.548C46.3699 108.228 50.0954 110.946 50.0954 110.946L54.955 105.206L60.4837 105.037L64.8527 104.904L68.485 110.797L73.7432 112.61L75.8023 123.064L72.042 134.22L72.2079 133.391C73.978 136.584 73.5277 137.064 72.062 139.461L71.9891 140.327C71.8168 142.374 73.2766 142.726 71.2215 143.157C53.5724 146.852 51.8915 154.243 49.7904 151.369C49.3225 150.729 51.308 143.09 50.6309 143.157C48.7757 143.338 50.7001 139.055 50.7001 139.055Z" fill="#E6E6E6"/>
<path d="M61.5161 102.875C66.5836 102.875 70.6916 98.8608 70.6916 93.9093C70.6916 88.9577 66.5836 84.9437 61.5161 84.9437C56.4486 84.9437 52.3406 88.9577 52.3406 93.9093C52.3406 98.8608 56.4486 102.875 61.5161 102.875Z" fill="#A0616A"/>
<path d="M42.1615 157.876L43.1011 126.292L49.2209 128.909L46.1699 157.761C46.6495 158.146 46.9973 158.665 47.1669 159.249C47.3365 159.832 47.3198 160.452 47.119 161.026C46.9182 161.6 46.5429 162.101 46.0433 162.461C45.5436 162.821 44.9434 163.023 44.3228 163.041C43.7023 163.059 43.0909 162.891 42.5705 162.561C42.0501 162.23 41.6454 161.752 41.4104 161.19C41.1755 160.629 41.1215 160.011 41.2557 159.418C41.3899 158.826 41.706 158.288 42.1615 157.876V157.876Z" fill="#A0616A"/>
<path d="M49.9859 110.783L49.2742 111.002C47.3726 111.589 45.7119 112.753 44.5331 114.324C43.3542 115.896 42.7187 117.794 42.7187 119.742L41.38 125.732C43.3193 128.983 46.186 130.594 50.1771 130.217L49.9859 110.783Z" fill="#E6E6E6"/>
<path d="M91.8187 121.684C91.819 121.241 91.7182 120.804 91.5239 120.405C91.3295 120.005 91.0464 119.653 90.6951 119.373C90.3438 119.094 89.9333 118.895 89.4932 118.79C89.0532 118.685 88.5948 118.677 88.1514 118.768C87.708 118.858 87.2907 119.043 86.9299 119.311C86.5691 119.578 86.2739 119.921 86.0657 120.314C85.8576 120.707 85.7417 121.14 85.7265 121.583C85.7114 122.025 85.7973 122.465 85.9781 122.871L79.9774 132.11V126.568L73.2084 127.283L74.1559 137.16C74.2318 137.95 74.5639 138.696 75.104 139.289C75.6441 139.883 76.3639 140.292 77.1587 140.458C77.9534 140.623 78.7814 140.537 79.5222 140.21C80.2631 139.884 80.878 139.335 81.2773 138.644L89.3887 124.6C90.0751 124.461 90.6916 124.095 91.1343 123.564C91.5769 123.033 91.8186 122.369 91.8187 121.684V121.684Z" fill="#A0616A"/>
<path d="M72.6595 112.267L73.3403 112.478C75.1595 113.039 76.7482 114.152 77.8759 115.656C79.0035 117.159 79.6115 118.975 79.6115 120.839L80.8921 126.568C79.0369 129.679 76.2945 131.22 72.4766 130.859L72.6595 112.267Z" fill="#E6E6E6"/>
<path d="M49.7388 95.9117C50.2513 94.0058 50.4439 92.0112 51.1842 90.1781C51.9192 88.3582 53.1644 86.7776 54.7769 85.6177C56.3893 84.4577 58.3038 83.7654 60.3006 83.6202C62.2974 83.4749 64.2956 83.8827 66.0661 84.7966C67.8365 85.7105 69.3074 87.0935 70.3101 88.7871C71.1888 90.1612 71.5592 91.7881 71.3596 93.3966C71.0676 95.1464 69.8815 96.8101 70.2529 98.5454C70.5013 99.7063 71.3988 100.608 72.1113 101.568C72.8238 102.529 73.3864 103.799 72.8729 104.873C72.3154 106.04 70.7667 106.385 69.4532 106.276C68.1398 106.166 66.8242 105.752 65.5276 105.984L66.145 103.62C64.6081 105.066 63.0711 106.511 61.5342 107.957C61.7043 106.452 60.989 105.009 60.4957 103.574C60.0024 102.139 59.7724 100.41 60.7498 99.2361C61.3344 98.5339 62.235 98.1791 63.0389 97.7295C63.8429 97.2798 64.6406 96.6064 64.7226 95.7048C64.8239 94.5899 63.8016 93.6953 62.7977 93.1563C61.7938 92.6174 60.6377 92.1655 60.0742 91.191C60.4787 92.0393 60.8831 92.8876 61.2876 93.7359C59.9426 93.643 58.6465 93.2051 57.5301 92.4664C56.4136 91.7277 55.5163 90.7143 54.9287 89.5286L54.3745 89.8831C49.767 94.932 55.6674 102.497 52.2084 105.144C53.7275 102.497 48.9497 98.8467 49.7388 95.9117Z" fill="#2F2E41"/>
<path d="M169.687 0.956134L85.5058 24.7528C72.413 28.4539 64.8698 41.8252 68.6575 54.6184L124.309 242.581C128.096 255.374 141.781 262.745 154.874 259.044L239.055 235.247C252.148 231.546 259.691 218.175 255.903 205.382L200.252 17.4189C196.465 4.62565 182.78 -2.74497 169.687 0.956134Z" fill="#3F3D56"/>
<path d="M170.33 3.12551L159.321 6.23743L160.421 9.95345C160.919 11.6354 160.713 13.4418 159.848 14.9752C158.983 16.5087 157.53 17.6435 155.809 18.1301L106.625 32.0334C104.904 32.52 103.055 32.3185 101.486 31.4733C99.9162 30.628 98.7548 29.2082 98.2568 27.5263L97.1566 23.8102L86.1481 26.9222C80.4533 28.5388 75.6474 32.2966 72.7847 37.3712C69.9219 42.4458 69.2361 48.4228 70.8777 53.9909L126.529 241.953C128.183 247.518 132.029 252.214 137.222 255.011C142.416 257.808 148.533 258.479 154.231 256.874L238.413 233.078C244.108 231.461 248.913 227.703 251.776 222.629C254.639 217.554 255.325 211.577 253.683 206.009L198.032 18.0465C196.378 12.4821 192.532 7.78618 187.338 4.98892C182.145 2.19165 176.028 1.52151 170.33 3.12551V3.12551Z" fill="white"/>
<path d="M75.2657 79.1541C74.8375 79.2747 74.3778 79.2243 73.9875 79.0141C73.5973 78.8039 73.3083 78.451 73.1839 78.0329L72.2497 74.8774C72.1883 74.6702 72.1694 74.4533 72.1938 74.2389C72.2183 74.0246 72.2857 73.817 72.3923 73.6281C72.4989 73.4392 72.6425 73.2727 72.8149 73.138C72.9873 73.0034 73.1852 72.9032 73.3972 72.8433C73.6093 72.7833 73.8313 72.7648 74.0507 72.7887C74.2701 72.8126 74.4825 72.8785 74.6758 72.9826C74.8691 73.0867 75.0395 73.2271 75.1773 73.3955C75.3152 73.564 75.4177 73.7574 75.479 73.9646L76.4132 77.12C76.5366 77.5384 76.4851 77.9876 76.2699 78.3689C76.0548 78.7503 75.6936 79.0327 75.2657 79.1541V79.1541Z" fill="#3F3D56"/>
<path d="M80.0562 95.3342C79.628 95.4548 79.1683 95.4044 78.7781 95.1942C78.3878 94.984 78.0988 94.6311 77.9745 94.2129L75.4028 85.527C75.3414 85.3198 75.3224 85.1029 75.3469 84.8885C75.3714 84.6742 75.4388 84.4666 75.5454 84.2777C75.6519 84.0888 75.7955 83.9223 75.968 83.7876C76.1404 83.653 76.3383 83.5528 76.5503 83.4929C76.7623 83.4329 76.9844 83.4144 77.2038 83.4383C77.4231 83.4622 77.6355 83.5281 77.8289 83.6322C78.0222 83.7363 78.1926 83.8767 78.3304 84.0451C78.4682 84.2136 78.5707 84.407 78.6321 84.6142L81.2038 93.3001C81.3271 93.7185 81.2756 94.1677 81.0605 94.549C80.8453 94.9303 80.4842 95.2127 80.0562 95.3342V95.3342Z" fill="#3F3D56"/>
<path d="M83.9076 108.342C83.4793 108.462 83.0197 108.412 82.6294 108.202C82.2391 107.992 81.9501 107.639 81.8258 107.221L79.2541 98.5347C79.1302 98.1163 79.1815 97.6669 79.3967 97.2854C79.6119 96.904 79.9734 96.6216 80.4016 96.5006C80.8298 96.3795 81.2898 96.4297 81.6802 96.6399C82.0706 96.8502 82.3595 97.2034 82.4834 97.6219L85.0551 106.308C85.1785 106.726 85.1269 107.175 84.9118 107.557C84.6966 107.938 84.3355 108.22 83.9076 108.342V108.342Z" fill="#3F3D56"/>
<path d="M214.208 63.8144C213.779 63.935 213.32 63.8846 212.929 63.6744C212.539 63.4642 212.25 63.1113 212.126 62.6931L205.851 41.4991C205.727 41.0807 205.778 40.6313 205.993 40.2498C206.209 39.8683 206.57 39.586 206.998 39.465C207.427 39.3439 207.886 39.394 208.277 39.6043C208.667 39.8146 208.956 40.1678 209.08 40.5862L215.355 61.7803C215.478 62.1987 215.427 62.6479 215.212 63.0292C214.997 63.4105 214.636 63.6929 214.208 63.8144Z" fill="#3F3D56"/>
<path d="M107.152 75.3582C107.003 75.4005 106.843 75.3874 106.703 75.3214L98.5495 71.4832C98.4749 71.4481 98.4081 71.399 98.353 71.3386C98.2978 71.2783 98.2554 71.208 98.2281 71.1316C98.2008 71.0553 98.1891 70.9744 98.1937 70.8937C98.1984 70.8129 98.2193 70.7338 98.2552 70.661L102.183 62.6935C102.219 62.6207 102.27 62.5554 102.331 62.5016C102.393 62.4477 102.465 62.4062 102.543 62.3795C102.621 62.3528 102.704 62.3414 102.787 62.3459C102.869 62.3505 102.95 62.3709 103.025 62.406C103.099 62.4411 103.166 62.4902 103.221 62.5506C103.276 62.6109 103.319 62.6812 103.346 62.7576C103.374 62.8339 103.385 62.9148 103.381 62.9955C103.376 63.0763 103.355 63.1553 103.319 63.2282L99.6646 70.6408L107.251 74.2117C107.366 74.2658 107.461 74.3528 107.524 74.461C107.588 74.5693 107.616 74.6938 107.605 74.8181C107.595 74.9424 107.545 75.0606 107.465 75.157C107.384 75.2535 107.275 75.3236 107.152 75.3582V75.3582Z" fill="#0146E9"/>
<path d="M111.787 74.0312C111.662 74.0664 111.53 74.0633 111.407 74.0223C111.285 73.9813 111.178 73.9044 111.102 73.802C111.025 73.6997 110.983 73.5769 110.981 73.4503C110.979 73.3237 111.017 73.1995 111.089 73.0946L115.805 66.2784L108.83 61.6698C108.761 61.6246 108.702 61.5666 108.656 61.4991C108.61 61.4316 108.579 61.3559 108.563 61.2764C108.547 61.1969 108.547 61.1151 108.564 61.0358C108.581 60.9564 108.613 60.881 108.659 60.814C108.706 60.7469 108.765 60.6894 108.835 60.6448C108.904 60.6002 108.981 60.5694 109.063 60.5542C109.144 60.5389 109.228 60.5394 109.309 60.5558C109.39 60.5722 109.467 60.6041 109.536 60.6496L117.034 65.6031C117.102 65.6483 117.161 65.7064 117.207 65.7739C117.252 65.8414 117.284 65.917 117.3 65.9964C117.315 66.0758 117.315 66.1575 117.298 66.2367C117.282 66.3159 117.249 66.3912 117.203 66.4582L112.133 73.7846C112.051 73.904 111.928 73.9913 111.787 74.0312Z" fill="#0146E9"/>
<path d="M194.365 59.3788L98.178 86.5691C96.6944 86.9867 95.1018 86.8122 93.7497 86.084C92.3975 85.3557 91.3962 84.133 90.9655 82.6843L85.5605 64.4288C85.1331 62.9792 85.3116 61.423 86.057 60.1018C86.8023 58.7806 88.0536 57.8022 89.5363 57.3813L185.723 30.1911C187.206 29.7734 188.799 29.9479 190.151 30.6762C191.503 31.4045 192.505 32.6271 192.935 34.0758L198.34 52.3313C198.768 53.781 198.589 55.3371 197.844 56.6583C197.099 57.9795 195.847 58.9579 194.365 59.3788ZM89.7698 58.1702C88.5012 58.5303 87.4305 59.3675 86.7927 60.498C86.1549 61.6286 86.0021 62.9601 86.3678 64.2006L91.7728 82.456C92.1414 83.6957 92.9982 84.7419 94.1552 85.3651C95.3122 85.9882 96.675 86.1375 97.9445 85.7802L194.131 58.5899C195.4 58.2298 196.47 57.3926 197.108 56.2621C197.746 55.1315 197.899 53.8 197.533 52.5595L192.128 34.3041C191.759 33.0644 190.903 32.0182 189.746 31.3951C188.589 30.7719 187.226 30.6226 185.956 30.9799L89.7698 58.1702Z" fill="#3F3D56"/>
<path d="M144.307 54.7219L128.16 59.2863C127.732 59.4073 127.272 59.3572 126.882 59.1469C126.491 58.9366 126.202 58.5834 126.078 58.165C125.954 57.7466 126.006 57.2972 126.221 56.9157C126.436 56.5342 126.798 56.2519 127.226 56.1308L143.372 51.5665C143.801 51.4454 144.261 51.4956 144.651 51.7058C145.041 51.9161 145.33 52.2693 145.454 52.6878C145.578 53.1062 145.527 53.5556 145.312 53.9371C145.096 54.3185 144.735 54.6009 144.307 54.7219V54.7219Z" fill="#E6E6E6"/>
<path d="M181.591 53.586L130.326 68.0778C129.897 68.1989 129.437 68.1488 129.047 67.9385C128.657 67.7282 128.368 67.375 128.244 66.9565C128.12 66.5381 128.171 66.0887 128.386 65.7072C128.602 65.3258 128.963 65.0434 129.391 64.9224L180.657 50.4305C181.085 50.3095 181.545 50.3596 181.935 50.5699C182.326 50.7802 182.615 51.1334 182.739 51.5518C182.862 51.9703 182.811 52.4196 182.596 52.8011C182.381 53.1826 182.019 53.4649 181.591 53.586V53.586Z" fill="#E6E6E6"/>
<path d="M143.611 200.176C143.462 200.218 143.302 200.205 143.162 200.139L135.008 196.301C134.934 196.266 134.867 196.217 134.812 196.156C134.756 196.096 134.714 196.026 134.687 195.949C134.659 195.873 134.648 195.792 134.652 195.711C134.657 195.631 134.678 195.551 134.714 195.479L138.642 187.511C138.715 187.364 138.844 187.251 139.002 187.197C139.16 187.143 139.333 187.153 139.483 187.224C139.634 187.295 139.75 187.421 139.805 187.575C139.86 187.729 139.85 187.899 139.778 188.046L136.123 195.458L143.709 199.029C143.824 199.083 143.92 199.17 143.983 199.279C144.046 199.387 144.075 199.511 144.064 199.636C144.053 199.76 144.004 199.878 143.923 199.975C143.842 200.071 143.733 200.141 143.611 200.176Z" fill="#0146E9"/>
<path d="M148.245 198.849C148.121 198.884 147.988 198.881 147.866 198.84C147.743 198.799 147.637 198.722 147.56 198.62C147.484 198.518 147.442 198.395 147.44 198.268C147.437 198.142 147.475 198.017 147.548 197.913L152.264 191.096L145.288 186.487C145.15 186.396 145.055 186.254 145.023 186.094C144.991 185.934 145.026 185.768 145.12 185.633C145.213 185.497 145.358 185.404 145.522 185.373C145.686 185.342 145.856 185.376 145.994 185.467L153.492 190.421C153.631 190.512 153.726 190.654 153.758 190.814C153.79 190.974 153.755 191.14 153.662 191.276L148.592 198.602C148.51 198.722 148.387 198.809 148.245 198.849V198.849Z" fill="#0146E9"/>
<path d="M238.508 208.473L142.321 235.663C140.838 236.081 139.245 235.907 137.893 235.178C136.541 234.45 135.539 233.227 135.109 231.779L121.179 184.73C120.751 183.28 120.93 181.724 121.675 180.403C122.42 179.082 123.672 178.103 125.154 177.682L221.341 150.492C222.825 150.074 224.417 150.249 225.769 150.977C227.122 151.705 228.123 152.928 228.554 154.377L242.484 201.426C242.911 202.875 242.732 204.431 241.987 205.753C241.242 207.074 239.99 208.052 238.508 208.473V208.473ZM125.388 178.471C124.119 178.831 123.049 179.668 122.411 180.799C121.773 181.93 121.62 183.261 121.986 184.502L135.916 231.55C136.285 232.79 137.141 233.836 138.298 234.459C139.455 235.083 140.818 235.232 142.088 234.875L238.274 207.684C239.543 207.324 240.614 206.487 241.251 205.356C241.889 204.226 242.042 202.894 241.676 201.654L227.746 154.605C227.378 153.365 226.521 152.319 225.364 151.696C224.207 151.073 222.844 150.924 221.575 151.281L125.388 178.471Z" fill="#3F3D56"/>
<path d="M180.765 179.539L164.619 184.104C164.407 184.164 164.184 184.183 163.965 184.159C163.745 184.136 163.532 184.07 163.339 183.966C163.145 183.862 162.975 183.721 162.837 183.553C162.699 183.384 162.596 183.191 162.535 182.983C162.473 182.776 162.454 182.559 162.479 182.344C162.503 182.13 162.571 181.922 162.678 181.733C162.785 181.544 162.928 181.377 163.101 181.243C163.274 181.108 163.472 181.008 163.684 180.948L179.831 176.384C180.259 176.264 180.718 176.314 181.108 176.525C181.498 176.735 181.787 177.088 181.911 177.506C182.034 177.924 181.983 178.373 181.768 178.754C181.554 179.136 181.193 179.418 180.765 179.539Z" fill="#E6E6E6"/>
<path d="M218.05 178.404L166.784 192.895C166.572 192.956 166.35 192.974 166.13 192.951C165.911 192.927 165.698 192.861 165.505 192.757C165.311 192.653 165.14 192.513 165.002 192.344C164.864 192.175 164.762 191.982 164.7 191.775C164.639 191.567 164.62 191.35 164.645 191.136C164.669 190.921 164.737 190.714 164.844 190.525C164.95 190.336 165.094 190.169 165.267 190.034C165.439 189.9 165.638 189.8 165.85 189.74L217.115 175.248C217.544 175.127 218.003 175.177 218.394 175.387C218.784 175.598 219.073 175.951 219.197 176.369C219.321 176.788 219.27 177.237 219.055 177.619C218.839 178 218.478 178.283 218.05 178.404V178.404Z" fill="#E6E6E6"/>
<path d="M105.884 110.095L101.173 111.427C100.531 111.609 100.161 112.265 100.347 112.892L100.739 114.218C100.925 114.846 101.596 115.207 102.238 115.026L106.95 113.694C107.592 113.512 107.962 112.857 107.776 112.229L107.383 110.903C107.197 110.275 106.526 109.914 105.884 110.095Z" fill="#E6E6E6"/>
<path d="M144.244 99.2518L139.533 100.584C138.891 100.765 138.521 101.421 138.707 102.048L139.099 103.375C139.285 104.002 139.956 104.363 140.598 104.182L145.31 102.85C145.952 102.669 146.322 102.013 146.136 101.385L145.743 100.059C145.557 99.4317 144.886 99.0703 144.244 99.2518Z" fill="#0146E9"/>
<path d="M155.113 96.1794L150.401 97.5113C149.759 97.6928 149.389 98.3485 149.575 98.9758L149.968 100.302C150.154 100.93 150.825 101.291 151.467 101.11L156.178 99.7777C156.82 99.5962 157.19 98.9405 157.004 98.3131L156.612 96.9867C156.426 96.3594 155.755 95.9979 155.113 96.1794Z" fill="#E6E6E6"/>
<path d="M133.721 101.901L111.518 108.178C110.876 108.359 110.506 109.015 110.692 109.642L111.085 110.969C111.27 111.596 111.941 111.958 112.583 111.776L134.787 105.5C135.429 105.318 135.799 104.662 135.613 104.035L135.22 102.709C135.035 102.081 134.364 101.72 133.721 101.901Z" fill="#E6E6E6"/>
<path d="M184.868 87.4431L162.665 93.7196C162.023 93.9011 161.653 94.5568 161.838 95.1842L162.231 96.5106C162.417 97.1379 163.088 97.4994 163.73 97.3179L185.933 91.0414C186.575 90.8599 186.945 90.2042 186.759 89.5768L186.367 88.2504C186.181 87.6231 185.51 87.2616 184.868 87.4431Z" fill="#F2F2F2"/>
<path d="M108.427 118.178L103.715 119.51C103.073 119.691 102.703 120.347 102.889 120.974L103.282 122.301C103.467 122.928 104.138 123.289 104.78 123.108L109.492 121.776C110.134 121.594 110.504 120.939 110.318 120.311L109.925 118.985C109.74 118.358 109.069 117.996 108.427 118.178Z" fill="#E6E6E6"/>
<path d="M146.786 107.334L142.075 108.666C141.433 108.847 141.063 109.503 141.249 110.13L141.641 111.457C141.827 112.084 142.498 112.446 143.14 112.264L147.852 110.932C148.494 110.751 148.864 110.095 148.678 109.468L148.285 108.141C148.099 107.514 147.428 107.153 146.786 107.334Z" fill="#0146E9"/>
<path d="M157.655 104.262L152.944 105.593C152.301 105.775 151.932 106.431 152.117 107.058L152.51 108.384C152.696 109.012 153.367 109.373 154.009 109.192L158.72 107.86C159.362 107.678 159.732 107.023 159.547 106.395L159.154 105.069C158.968 104.442 158.297 104.08 157.655 104.262Z" fill="#E6E6E6"/>
<path d="M136.264 109.984L114.06 116.26C113.418 116.442 113.048 117.097 113.234 117.725L113.627 119.051C113.812 119.678 114.484 120.04 115.126 119.858L137.329 113.582C137.971 113.4 138.341 112.745 138.155 112.117L137.762 110.791C137.577 110.164 136.906 109.802 136.264 109.984Z" fill="#E6E6E6"/>
<path d="M187.411 95.5242L165.208 101.801C164.566 101.982 164.196 102.638 164.382 103.265L164.774 104.592C164.96 105.219 165.631 105.581 166.273 105.399L188.477 99.1225C189.119 98.941 189.489 98.2853 189.303 97.6579L188.91 96.3315C188.724 95.7042 188.053 95.3427 187.411 95.5242Z" fill="#F2F2F2"/>
<path d="M131.152 120.554L126.44 121.886C125.798 122.068 125.429 122.724 125.614 123.351L126.007 124.677C126.193 125.305 126.864 125.666 127.506 125.485L132.217 124.153C132.859 123.971 133.229 123.316 133.044 122.688L132.651 121.362C132.465 120.734 131.794 120.373 131.152 120.554Z" fill="#E6E6E6"/>
<path d="M169.512 109.711L164.8 111.043C164.158 111.224 163.788 111.88 163.974 112.507L164.367 113.834C164.553 114.461 165.224 114.822 165.866 114.641L170.577 113.309C171.219 113.128 171.589 112.472 171.403 111.844L171.011 110.518C170.825 109.891 170.154 109.529 169.512 109.711Z" fill="#0146E9"/>
<path d="M180.38 106.638L175.669 107.97C175.027 108.152 174.657 108.807 174.843 109.435L175.235 110.761C175.421 111.389 176.092 111.75 176.734 111.569L181.446 110.237C182.088 110.055 182.458 109.399 182.272 108.772L181.879 107.446C181.694 106.818 181.023 106.457 180.38 106.638Z" fill="#E6E6E6"/>
<path d="M158.989 112.36L136.786 118.637C136.144 118.818 135.774 119.474 135.959 120.101L136.352 121.428C136.538 122.055 137.209 122.417 137.851 122.235L160.054 115.959C160.696 115.777 161.066 115.121 160.881 114.494L160.488 113.168C160.302 112.54 159.631 112.179 158.989 112.36Z" fill="#E6E6E6"/>
<path d="M210.137 97.9009L187.933 104.178C187.291 104.359 186.921 105.015 187.107 105.642L187.5 106.968C187.686 107.596 188.357 107.957 188.999 107.776L211.202 101.499C211.844 101.318 212.214 100.662 212.028 100.035L211.636 98.7082C211.45 98.0809 210.779 97.7194 210.137 97.9009Z" fill="#F2F2F2"/>
<path d="M117.752 150.137L113.041 151.469C112.399 151.65 112.029 152.306 112.215 152.933L112.607 154.26C112.793 154.887 113.464 155.248 114.106 155.067L118.818 153.735C119.46 153.554 119.83 152.898 119.644 152.271L119.251 150.944C119.065 150.317 118.394 149.955 117.752 150.137Z" fill="#0146E9"/>
<path d="M128.621 147.064L123.909 148.396C123.267 148.578 122.898 149.233 123.083 149.861L123.476 151.187C123.662 151.815 124.333 152.176 124.975 151.995L129.686 150.663C130.328 150.481 130.698 149.825 130.513 149.198L130.12 147.872C129.934 147.244 129.263 146.883 128.621 147.064Z" fill="#E6E6E6"/>
<path d="M158.554 138.928L136.35 145.205C135.708 145.386 135.338 146.042 135.524 146.669L135.917 147.995C136.103 148.623 136.774 148.984 137.416 148.803L159.619 142.526C160.261 142.345 160.631 141.689 160.445 141.062L160.052 139.735C159.867 139.108 159.196 138.747 158.554 138.928Z" fill="#F2F2F2"/>
<path d="M143.338 134.103L138.627 135.435C137.985 135.617 137.615 136.272 137.801 136.9L138.194 138.226C138.379 138.853 139.05 139.215 139.692 139.033L144.404 137.701C145.046 137.52 145.416 136.864 145.23 136.237L144.837 134.911C144.652 134.283 143.981 133.922 143.338 134.103Z" fill="#0146E9"/>
<path d="M154.208 131.03L149.497 132.362C148.855 132.543 148.485 133.199 148.671 133.826L149.063 135.153C149.249 135.78 149.92 136.142 150.562 135.96L155.274 134.628C155.916 134.447 156.286 133.791 156.1 133.164L155.707 131.837C155.521 131.21 154.85 130.848 154.208 131.03Z" fill="#0146E9"/>
<path d="M132.993 137.353L110.79 143.629C110.148 143.811 109.778 144.466 109.964 145.094L110.356 146.42C110.542 147.047 111.213 147.409 111.855 147.227L134.059 140.951C134.701 140.769 135.071 140.114 134.885 139.486L134.492 138.16C134.306 137.533 133.635 137.171 132.993 137.353Z" fill="#E6E6E6"/>
<path d="M184.141 122.893L161.938 129.17C161.296 129.352 160.926 130.007 161.111 130.635L161.504 131.961C161.69 132.588 162.361 132.95 163.003 132.768L185.206 126.492C185.848 126.31 186.218 125.654 186.033 125.027L185.64 123.701C185.454 123.073 184.783 122.712 184.141 122.893Z" fill="#F2F2F2"/>
<path d="M133.39 128.115L128.679 129.446C128.037 129.628 127.667 130.284 127.853 130.911L128.245 132.237C128.431 132.865 129.102 133.226 129.744 133.045L134.456 131.713C135.098 131.531 135.468 130.876 135.282 130.248L134.889 128.922C134.703 128.295 134.032 127.933 133.39 128.115Z" fill="#E6E6E6"/>
<path d="M171.75 117.271L167.039 118.603C166.397 118.784 166.027 119.44 166.212 120.067L166.605 121.394C166.791 122.021 167.462 122.382 168.104 122.201L172.815 120.869C173.458 120.688 173.827 120.032 173.642 119.405L173.249 118.078C173.063 117.451 172.392 117.089 171.75 117.271Z" fill="#0146E9"/>
<path d="M182.619 114.199L177.907 115.53C177.265 115.712 176.895 116.368 177.081 116.995L177.474 118.321C177.66 118.949 178.331 119.31 178.973 119.129L183.684 117.797C184.326 117.615 184.696 116.96 184.51 116.332L184.118 115.006C183.932 114.378 183.261 114.017 182.619 114.199Z" fill="#E6E6E6"/>
<path d="M161.405 120.52L139.202 126.797C138.56 126.978 138.19 127.634 138.375 128.261L138.768 129.588C138.954 130.215 139.625 130.577 140.267 130.395L162.47 124.119C163.112 123.937 163.482 123.281 163.296 122.654L162.904 121.328C162.718 120.7 162.047 120.339 161.405 120.52Z" fill="#E6E6E6"/>
<path d="M212.552 106.062L190.348 112.339C189.706 112.52 189.336 113.176 189.522 113.803L189.915 115.13C190.1 115.757 190.772 116.118 191.414 115.937L213.617 109.66C214.259 109.479 214.629 108.823 214.443 108.196L214.05 106.869C213.865 106.242 213.194 105.881 212.552 106.062Z" fill="#F2F2F2"/>
<path d="M121.857 134.94C122.901 134.94 123.748 134.112 123.748 133.092C123.748 132.071 122.901 131.244 121.857 131.244C120.813 131.244 119.966 132.071 119.966 133.092C119.966 134.112 120.813 134.94 121.857 134.94Z" fill="#0146E9"/>
<path d="M119.638 127.445C120.682 127.445 121.529 126.618 121.529 125.598C121.529 124.577 120.682 123.75 119.638 123.75C118.594 123.75 117.747 124.577 117.747 125.598C117.747 126.618 118.594 127.445 119.638 127.445Z" fill="#0146E9"/>
<path d="M133.207 19.1101L120.694 22.6475C120.427 22.7219 120.14 22.6898 119.897 22.5583C119.654 22.4267 119.474 22.2064 119.397 21.9456C119.32 21.6847 119.351 21.4046 119.485 21.1665C119.619 20.9285 119.843 20.7519 120.11 20.6754L132.624 17.138C132.756 17.0999 132.895 17.0878 133.033 17.1024C133.17 17.117 133.304 17.1579 133.425 17.2229C133.546 17.288 133.653 17.3757 133.739 17.4812C133.826 17.5867 133.89 17.7078 133.929 17.8376C133.967 17.9675 133.979 18.1034 133.963 18.2377C133.948 18.372 133.906 18.502 133.839 18.6202C133.772 18.7385 133.681 18.8426 133.573 18.9267C133.465 19.0107 133.34 19.0731 133.207 19.1101V19.1101Z" fill="white"/>
<path d="M139.374 17.1195C139.838 17.1195 140.215 16.7518 140.215 16.2983C140.215 15.8447 139.838 15.4771 139.374 15.4771C138.91 15.4771 138.534 15.8447 138.534 16.2983C138.534 16.7518 138.91 17.1195 139.374 17.1195Z" fill="white"/>
<path d="M14.4449 259.444C14.3303 259.134 14.2509 258.813 14.2081 258.486C14.2034 258.463 14.2015 258.438 14.2026 258.414C13.9886 256.426 15.0389 254.583 16.229 252.712L17.8606 250.151C18.0126 249.912 18.2339 249.723 18.4964 249.608C18.7589 249.493 19.0505 249.457 19.3339 249.505C19.6174 249.553 19.8797 249.683 20.0874 249.877C20.2952 250.072 20.4388 250.322 20.4999 250.597C20.5885 250.995 20.6772 251.398 20.7619 251.8C21.6403 251.086 22.5575 250.425 23.3606 249.854C25.4814 248.35 27.6015 246.845 29.7211 245.338C29.9535 245.173 30.2311 245.079 30.5183 245.068C30.8056 245.058 31.0895 245.132 31.3336 245.28C31.5778 245.428 31.7711 245.644 31.8889 245.901C32.0066 246.157 32.0434 246.442 31.9945 246.718L31.5911 249.004C31.0554 252.036 30.4482 255.473 29.0117 258.478C28.8509 258.822 28.6787 259.157 28.5004 259.473L28.4405 259.579H14.495L14.4449 259.444Z" fill="#F0F0F0"/>
<path d="M0.497585 259.874L259.502 260C259.634 259.999 259.761 259.947 259.854 259.856C259.947 259.764 260 259.64 260 259.511C260 259.382 259.947 259.258 259.854 259.166C259.761 259.075 259.634 259.023 259.502 259.022L0.497585 258.896C0.365321 258.897 0.238702 258.948 0.145411 259.04C0.0521202 259.132 -0.000244141 259.256 -0.000244141 259.385C-0.000244141 259.514 0.0521202 259.638 0.145411 259.73C0.238702 259.821 0.365321 259.873 0.497585 259.874Z" fill="white"/>
<path d="M179.173 213.698C177.809 214.083 176.36 214.065 175.007 213.645C173.654 213.226 172.459 212.423 171.573 211.34C170.686 210.257 170.149 208.941 170.028 207.559C169.907 206.177 170.208 204.791 170.893 203.576C171.579 202.362 172.617 201.373 173.878 200.735C175.138 200.097 176.563 199.839 177.974 199.992C179.385 200.146 180.717 200.705 181.803 201.599C182.888 202.492 183.678 203.68 184.073 205.013C184.602 206.799 184.382 208.718 183.464 210.347C182.545 211.976 181.001 213.181 179.173 213.698V213.698Z" fill="#E6E6E6"/>
<path d="M179.702 205.528L177.662 206.105L177.072 204.111C177.046 204.024 177.003 203.943 176.945 203.872C176.887 203.801 176.815 203.742 176.733 203.698C176.569 203.609 176.375 203.588 176.195 203.639C176.014 203.69 175.862 203.809 175.772 203.97C175.681 204.13 175.659 204.32 175.712 204.496L176.302 206.489L174.262 207.066C174.081 207.117 173.93 207.236 173.839 207.397C173.749 207.557 173.727 207.746 173.779 207.923C173.831 208.099 173.953 208.247 174.117 208.336C174.281 208.424 174.475 208.446 174.655 208.395L176.695 207.818L177.285 209.812C177.311 209.899 177.354 209.981 177.412 210.051C177.471 210.122 177.542 210.182 177.624 210.225C177.705 210.269 177.795 210.297 177.887 210.307C177.979 210.317 178.073 210.309 178.162 210.284C178.252 210.259 178.335 210.217 178.407 210.16C178.48 210.103 178.541 210.033 178.585 209.954C178.63 209.874 178.659 209.787 178.669 209.696C178.679 209.606 178.671 209.515 178.646 209.427L178.055 207.434L180.095 206.857C180.276 206.806 180.428 206.687 180.518 206.526C180.608 206.366 180.63 206.177 180.578 206.001C180.526 205.825 180.404 205.676 180.24 205.587C180.076 205.499 179.882 205.478 179.702 205.528V205.528Z" fill="white"/>
<path d="M199.343 207.996C197.979 208.382 196.529 208.363 195.177 207.944C193.824 207.524 192.629 206.722 191.742 205.638C190.856 204.555 190.319 203.239 190.198 201.857C190.077 200.475 190.378 199.089 191.063 197.875C191.748 196.66 192.787 195.671 194.047 195.033C195.308 194.395 196.733 194.137 198.144 194.291C199.555 194.444 200.887 195.003 201.972 195.897C203.058 196.791 203.848 197.979 204.242 199.311C204.771 201.098 204.552 203.016 203.633 204.645C202.715 206.274 201.171 207.479 199.343 207.996Z" fill="#E6E6E6"/>
<path d="M199.872 199.827L197.832 200.403L196.472 200.788L194.431 201.364C194.251 201.415 194.099 201.534 194.008 201.695C193.917 201.856 193.896 202.045 193.948 202.221C194 202.397 194.122 202.546 194.286 202.635C194.451 202.723 194.644 202.744 194.825 202.693L196.865 202.117L198.225 201.732L200.265 201.155C200.355 201.13 200.438 201.088 200.511 201.032C200.584 200.975 200.644 200.905 200.689 200.825C200.734 200.746 200.763 200.658 200.773 200.568C200.784 200.477 200.776 200.386 200.75 200.298C200.724 200.211 200.681 200.13 200.622 200.059C200.564 199.988 200.492 199.928 200.411 199.885C200.329 199.841 200.24 199.813 200.147 199.803C200.055 199.793 199.961 199.801 199.872 199.827Z" fill="white"/>
<path d="M219.513 202.295C218.149 202.68 216.699 202.662 215.346 202.242C213.993 201.822 212.798 201.02 211.912 199.937C211.026 198.853 210.488 197.537 210.368 196.155C210.247 194.774 210.548 193.388 211.233 192.173C211.918 190.958 212.957 189.97 214.217 189.332C215.477 188.694 216.903 188.435 218.314 188.589C219.724 188.743 221.057 189.302 222.142 190.195C223.228 191.089 224.018 192.277 224.412 193.609C224.941 195.396 224.722 197.315 223.803 198.944C222.884 200.572 221.341 201.778 219.513 202.295Z" fill="#E6E6E6"/>
<path d="M221.302 194.142L218.522 191.907C218.461 191.858 218.39 191.821 218.315 191.798C218.239 191.776 218.159 191.768 218.08 191.775C218.001 191.783 217.925 191.806 217.855 191.842C217.785 191.878 217.723 191.928 217.673 191.988C217.622 192.047 217.585 192.116 217.562 192.19C217.538 192.264 217.53 192.342 217.538 192.419C217.546 192.496 217.569 192.571 217.606 192.64C217.643 192.708 217.694 192.768 217.755 192.818L219.553 194.263L218.001 194.702L216.641 195.086L214.601 195.663C214.421 195.714 214.269 195.833 214.178 195.993C214.087 196.154 214.066 196.343 214.118 196.52C214.17 196.696 214.292 196.845 214.456 196.933C214.621 197.022 214.814 197.043 214.995 196.992L217.035 196.415L218.395 196.031L220.009 195.574L219.243 197.841C219.193 197.989 219.205 198.151 219.277 198.29C219.349 198.43 219.475 198.535 219.627 198.584C219.778 198.633 219.944 198.621 220.087 198.551C220.229 198.481 220.338 198.359 220.388 198.211L221.518 194.871C221.548 194.741 221.544 194.606 221.507 194.479C221.469 194.351 221.398 194.235 221.302 194.142V194.142Z" fill="white"/>
</g>
<defs>
<clipPath id="clip0_38_71">
<rect width="260" height="260" fill="white"/>
</clipPath>
</defs>
</svg>
